<?xml version="1.0" encoding="iso-8859-1"?>
<!-- Generator: Adobe Illustrator 19.0.0, SVG Export Plug-In . SVG Version: 6.00 Build 0)  -->
<svg version="1.1" id="Layer_1" xmlns="http://www.w3.org/2000/svg" xmlns:xlink="http://www.w3.org/1999/xlink" x="0px" y="0px"
	 viewBox="0 0 512 512" style="enable-background:new 0 0 512 512;" xml:space="preserve" fill='white'>
<g>
	<g>
		<polygon points="213.675,255.998 298.667,304.574 298.667,207.422 		"/>
	</g>
</g>
<g>
	<g>
		<path d="M256,0C114.837,0,0,114.837,0,256s114.837,256,256,256s256-114.837,256-256S397.163,0,256,0z M341.334,341.333h-0.001
			c0,7.595-4.032,14.635-10.624,18.453c-3.307,1.92-6.997,2.88-10.709,2.88c-3.648,0-7.317-0.939-10.581-2.816l-149.333-85.333
			c-6.656-3.797-10.752-10.859-10.752-18.517c0-7.658,4.096-14.72,10.752-18.517l149.333-85.333
			c6.592-3.776,14.72-3.755,21.291,0.064c6.592,3.819,10.624,10.859,10.624,18.453V341.333z"/>
	</g>
</g>
<g>
</g>
<g>
</g>
<g>
</g>
<g>
</g>
<g>
</g>
<g>
</g>
<g>
</g>
<g>
</g>
<g>
</g>
<g>
</g>
<g>
</g>
<g>
</g>
<g>
</g>
<g>
</g>
<g>
</g>
</svg>
